+ PATH=/home/admin/.nvm/versions/node/v24.4.1/bin:/usr/local/sbin:/usr/local/bin:/usr/sbin:/usr/bin:/sbin:/bin:/usr/local/games:/usr/games:/home/admin/.nvm/versions/node/v24.4.1/bin
+ IMAGEDIR=/tmp/wa
+ export 'GIT_SSH_COMMAND=ssh -i ~/.ssh/deploy_key'
+ GIT_SSH_COMMAND='ssh -i ~/.ssh/deploy_key'
+ rm -r /tmp/wa
+ mkdir /tmp/wa
+ cd /home/admin/Documents/basic/docs/wa/pw
+ rm -fv 7day.png accuweather.png aos.png captain.png cones.png fos.png ikite.png noaa.png pos.png surfchex1.png surfchex2.png tides.png wos.png '*.mp3'
removed '7day.png'
removed 'accuweather.png'
removed 'aos.png'
removed 'captain.png'
removed 'cones.png'
removed 'fos.png'
removed 'ikite.png'
removed 'noaa.png'
removed 'pos.png'
removed 'surfchex1.png'
removed 'surfchex2.png'
removed 'tides.png'
removed 'wos.png'
+ echo 'Starting with deploy.sh'
+ date
+ whereis npx
+ npx playwright test --trace on
+ cp /tmp/wa/7day.png /tmp/wa/accuweather.png /tmp/wa/captain.png /tmp/wa/cones.png /tmp/wa/ikite.png /tmp/wa/noaa.png /tmp/wa/surfchex1.png /tmp/wa/surfchex2.png /tmp/wa/tides.png .
+ echo 'new images into pw repo from /tmp/wa:'
new images into pw repo from /tmp/wa:
+ ls -ltr 7day.png accuweather.png captain.png cones.png ikite.png noaa.png surfchex1.png surfchex2.png tides.png
+ git checkout main
Already on 'main'
M	docs/wa/deploy.sh
M	docs/wa/pw/7day.png
M	docs/wa/pw/accuweather.png
D	docs/wa/pw/aos.png
M	docs/wa/pw/captain.png
M	docs/wa/pw/cones.png
D	docs/wa/pw/fos.png
M	docs/wa/pw/ikite.png
M	docs/wa/pw/noaa.png
D	docs/wa/pw/pos.png
M	docs/wa/pw/surfchex1.png
M	docs/wa/pw/surfchex2.png
M	docs/wa/pw/tides.png
D	docs/wa/pw/wos.png
Your branch is up to date with 'origin/main'.
+ git config pull.rebase true
+ echo 'Git branches right now: \n'
+ git branch -l
+ git pull
error: cannot pull with rebase: You have unstaged changes.
error: please commit or stash them.
+ pwd
+ cp /home/admin/Documents/surf-temp.gif .
+ ls -asl /home/admin/Documents/surf-temp.gif ./surf-temp.gif
++ date '+%Y-%m-%d ~ %H:%M'
+ DATESTR='2025-08-05 ~ 19:04'
+ wget https://5b17d0ba29814.streamlock.net:9443/live/rodanthe.stream/chunklist_w144885282.m3u8 -O /tmp/chunklist_w144885282.m3u8
--2025-08-05 19:04:05--  https://5b17d0ba29814.streamlock.net:9443/live/rodanthe.stream/chunklist_w144885282.m3u8
Resolving 5b17d0ba29814.streamlock.net (5b17d0ba29814.streamlock.net)... 67.213.220.48
Connecting to 5b17d0ba29814.streamlock.net (5b17d0ba29814.streamlock.net)|67.213.220.48|:9443... connected.
HTTP request sent, awaiting response... 200 OK
Length: 232 [application/vnd.apple.mpegurl]
Saving to: ‘/tmp/chunklist_w144885282.m3u8’

     0K                                                       100%  664M=0s

2025-08-05 19:04:06 (664 MB/s) - ‘/tmp/chunklist_w144885282.m3u8’ saved [232/232]

++ tail -1 /tmp/chunklist_w144885282.m3u8
+ URL=media_w144885282_6102.ts
+ wget https://5b17d0ba29814.streamlock.net:9443/live/rodanthe.stream/media_w144885282_6102.ts -O /tmp/pos.ts
--2025-08-05 19:04:06--  https://5b17d0ba29814.streamlock.net:9443/live/rodanthe.stream/media_w144885282_6102.ts
Resolving 5b17d0ba29814.streamlock.net (5b17d0ba29814.streamlock.net)... 67.213.220.48
Connecting to 5b17d0ba29814.streamlock.net (5b17d0ba29814.streamlock.net)|67.213.220.48|:9443... connected.
HTTP request sent, awaiting response... 200 OK
Length: 137052 (134K) [video/MP2T]
Saving to: ‘/tmp/pos.ts’

     0K .......... .......... .......... .......... .......... 37%  800K 0s
    50K .......... .......... .......... .......... .......... 74%  683K 0s
   100K .......... .......... .......... ...                  100% 5.58M=0.1s

2025-08-05 19:04:07 (945 KB/s) - ‘/tmp/pos.ts’ saved [137052/137052]

+ ffmpeg -i /tmp/pos.ts -frames:v 1 /tmp/wa/pos.png
ffmpeg version 5.1.6-0+deb12u1+rpt3 Copyright (c) 2000-2024 the FFmpeg developers
  built with gcc 12 (Debian 12.2.0-14)
  configuration: --prefix=/usr --extra-version=0+deb12u1+rpt3 --toolchain=hardened --incdir=/usr/include/aarch64-linux-gnu --enable-gpl --disable-stripping --disable-mmal --enable-gnutls --enable-ladspa --enable-libaom --enable-libass --enable-libbluray --enable-libbs2b --enable-libcaca --enable-libcdio --enable-libcodec2 --enable-libdav1d --enable-libflite --enable-libfontconfig --enable-libfreetype --enable-libfribidi --enable-libglslang --enable-libgme --enable-libgsm --enable-libjack --enable-libmp3lame --enable-libmysofa --enable-libopenjpeg --enable-libopenmpt --enable-libopus --enable-libpulse --enable-librabbitmq --enable-librist --enable-librubberband --enable-libshine --enable-libsnappy --enable-libsoxr --enable-libspeex --enable-libsrt --enable-libssh --enable-libsvtav1 --enable-libtheora --enable-libtwolame --enable-libvidstab --enable-libvorbis --enable-libvpx --enable-libwebp --enable-libx265 --enable-libxml2 --enable-libxvid --enable-libzimg --enable-libzmq --enable-libzvbi --enable-lv2 --enable-omx --enable-openal --enable-opencl --enable-opengl --enable-sand --enable-sdl2 --disable-sndio --enable-libjxl --enable-neon --enable-v4l2-request --enable-libudev --enable-epoxy --libdir=/usr/lib/aarch64-linux-gnu --arch=arm64 --enable-pocketsphinx --enable-librsvg --enable-libdc1394 --enable-libdrm --enable-vout-drm --enable-libiec61883 --enable-chromaprint --enable-frei0r --enable-libx264 --enable-libplacebo --enable-librav1e --enable-shared
  libavutil      57. 28.100 / 57. 28.100
  libavcodec     59. 37.100 / 59. 37.100
  libavformat    59. 27.100 / 59. 27.100
  libavdevice    59.  7.100 / 59.  7.100
  libavfilter     8. 44.100 /  8. 44.100
  libswscale      6.  7.100 /  6.  7.100
  libswresample   4.  7.100 /  4.  7.100
  libpostproc    56.  6.100 / 56.  6.100
[mpegts @ 0x5555820c2480] start time for stream 0 is not set in estimate_timings_from_pts
Input #0, mpegts, from '/tmp/pos.ts':
  Duration: 00:00:10.07, start: 84060.606533, bitrate: 108 kb/s
  Program 1 
  Stream #0:0[0x102]: Data: timed_id3 (ID3  / 0x20334449)
  Stream #0:1[0x100]: Video: h264 (Main) ([27][0][0][0] / 0x001B), yuvj420p(pc, bt709, progressive), 1920x1080 [SAR 1:1 DAR 16:9], 15 fps, 15 tbr, 90k tbn
Stream mapping:
  Stream #0:1 -> #0:0 (h264 (native) -> png (native))
Press [q] to stop, [?] for help
[swscaler @ 0x555582927eb0] [swscaler @ 0x555582935bb0] deprecated pixel format used, make sure you did set range correctly
[swscaler @ 0x555582927eb0] [swscaler @ 0x555582935bb0] No accelerated colorspace conversion found from yuv420p to rgb24.
[swscaler @ 0x555582927eb0] [swscaler @ 0x555582961650] deprecated pixel format used, make sure you did set range correctly
[swscaler @ 0x555582927eb0] [swscaler @ 0x555582961650] No accelerated colorspace conversion found from yuv420p to rgb24.
[swscaler @ 0x555582927eb0] [swscaler @ 0x555582988a30] deprecated pixel format used, make sure you did set range correctly
[swscaler @ 0x555582927eb0] [swscaler @ 0x555582988a30] No accelerated colorspace conversion found from yuv420p to rgb24.
[swscaler @ 0x555582927eb0] [swscaler @ 0x5555829afe10] deprecated pixel format used, make sure you did set range correctly
[swscaler @ 0x555582927eb0] [swscaler @ 0x5555829afe10] No accelerated colorspace conversion found from yuv420p to rgb24.
[swscaler @ 0x555582927eb0] [swscaler @ 0x5555829d71f0] deprecated pixel format used, make sure you did set range correctly
[swscaler @ 0x555582927eb0] [swscaler @ 0x5555829d71f0] No accelerated colorspace conversion found from yuv420p to rgb24.
[swscaler @ 0x555582927eb0] [swscaler @ 0x5555829453e0] deprecated pixel format used, make sure you did set range correctly
[swscaler @ 0x555582927eb0] [swscaler @ 0x5555829453e0] No accelerated colorspace conversion found from yuv420p to rgb24.
[swscaler @ 0x555582927eb0] [swscaler @ 0x55558295d950] deprecated pixel format used, make sure you did set range correctly
[swscaler @ 0x555582927eb0] [swscaler @ 0x55558295d950] No accelerated colorspace conversion found from yuv420p to rgb24.
[swscaler @ 0x555582927eb0] [swscaler @ 0x55558298bec0] deprecated pixel format used, make sure you did set range correctly
[swscaler @ 0x555582927eb0] [swscaler @ 0x55558298bec0] No accelerated colorspace conversion found from yuv420p to rgb24.
[swscaler @ 0x555582927eb0] [swscaler @ 0x5555829b32a0] deprecated pixel format used, make sure you did set range correctly
[swscaler @ 0x555582927eb0] [swscaler @ 0x5555829b32a0] No accelerated colorspace conversion found from yuv420p to rgb24.
[swscaler @ 0x555582927eb0] [swscaler @ 0x5555829cf660] deprecated pixel format used, make sure you did set range correctly
[swscaler @ 0x555582927eb0] [swscaler @ 0x5555829cf660] No accelerated colorspace conversion found from yuv420p to rgb24.
[swscaler @ 0x555582927eb0] [swscaler @ 0x5555829453e0] deprecated pixel format used, make sure you did set range correctly
[swscaler @ 0x555582927eb0] [swscaler @ 0x5555829453e0] No accelerated colorspace conversion found from yuv420p to rgb24.
[swscaler @ 0x555582927eb0] [swscaler @ 0x55558295d950] deprecated pixel format used, make sure you did set range correctly
[swscaler @ 0x555582927eb0] [swscaler @ 0x55558295d950] No accelerated colorspace conversion found from yuv420p to rgb24.
[swscaler @ 0x555582927eb0] [swscaler @ 0x55558298bec0] deprecated pixel format used, make sure you did set range correctly
[swscaler @ 0x555582927eb0] [swscaler @ 0x55558298bec0] No accelerated colorspace conversion found from yuv420p to rgb24.
[swscaler @ 0x555582927eb0] [swscaler @ 0x5555829b32a0] deprecated pixel format used, make sure you did set range correctly
[swscaler @ 0x555582927eb0] [swscaler @ 0x5555829b32a0] No accelerated colorspace conversion found from yuv420p to rgb24.
[swscaler @ 0x555582927eb0] [swscaler @ 0x5555829cf660] deprecated pixel format used, make sure you did set range correctly
[swscaler @ 0x555582927eb0] [swscaler @ 0x5555829cf660] No accelerated colorspace conversion found from yuv420p to rgb24.
[swscaler @ 0x555582927eb0] [swscaler @ 0x5555829453e0] deprecated pixel format used, make sure you did set range correctly
[swscaler @ 0x555582927eb0] [swscaler @ 0x5555829453e0] No accelerated colorspace conversion found from yuv420p to rgb24.
[swscaler @ 0x555582927eb0] [swscaler @ 0x55558295d950] deprecated pixel format used, make sure you did set range correctly
[swscaler @ 0x555582927eb0] [swscaler @ 0x55558295d950] No accelerated colorspace conversion found from yuv420p to rgb24.
[swscaler @ 0x555582927eb0] [swscaler @ 0x55558298bec0] deprecated pixel format used, make sure you did set range correctly
[swscaler @ 0x555582927eb0] [swscaler @ 0x55558298bec0] No accelerated colorspace conversion found from yuv420p to rgb24.
[swscaler @ 0x555582927eb0] [swscaler @ 0x5555829b32a0] deprecated pixel format used, make sure you did set range correctly
[swscaler @ 0x555582927eb0] [swscaler @ 0x5555829b32a0] No accelerated colorspace conversion found from yuv420p to rgb24.
[swscaler @ 0x555582927eb0] [swscaler @ 0x5555829cf660] deprecated pixel format used, make sure you did set range correctly
[swscaler @ 0x555582927eb0] [swscaler @ 0x5555829cf660] No accelerated colorspace conversion found from yuv420p to rgb24.
Output #0, image2, to '/tmp/wa/pos.png':
  Metadata:
    encoder         : Lavf59.27.100
  Stream #0:0: Video: png, rgb24(pc, gbr/bt709/bt709, progressive), 1920x1080 [SAR 1:1 DAR 16:9], q=2-31, 200 kb/s, 15 fps, 15 tbn
    Metadata:
      encoder         : Lavc59.37.100 png
frame=    1 fps=0.0 q=0.0 size=N/A time=00:00:00.00 bitrate=N/A speed=   0x    [image2 @ 0x5555821a9ba0] The specified filename '/tmp/wa/pos.png' does not contain an image sequence pattern or a pattern is invalid.
[image2 @ 0x5555821a9ba0] Use a pattern such as %03d for an image sequence or use the -update option (with -frames:v 1 if needed) to write a single image.
frame=    1 fps=0.0 q=-0.0 Lsize=N/A time=00:00:00.06 bitrate=N/A speed=0.434x    
video:180kB audio:0kB subtitle:0kB other streams:0kB global headers:0kB muxing overhead: unknown
+ convert /tmp/wa/pos.png -gravity Northeast -fill black -pointsize 32 -annotate +20+20 '\n\n2025-08-05 ~ 19:04' /tmp/wa/pos1.png
+ '[' 0 -ne 0 ']'
+ wget https://5b17d0ba29814.streamlock.net:9443/live/avon.stream/chunklist_w1479874796.m3u8 -O /tmp/chunklist_w1479874796.m3u8
--2025-08-05 19:04:10--  https://5b17d0ba29814.streamlock.net:9443/live/avon.stream/chunklist_w1479874796.m3u8
Resolving 5b17d0ba29814.streamlock.net (5b17d0ba29814.streamlock.net)... 67.213.220.48
Connecting to 5b17d0ba29814.streamlock.net (5b17d0ba29814.streamlock.net)|67.213.220.48|:9443... connected.
HTTP request sent, awaiting response... 200 OK
Length: 229 [application/vnd.apple.mpegurl]
Saving to: ‘/tmp/chunklist_w1479874796.m3u8’

     0K                                                       100%  984M=0s

2025-08-05 19:04:11 (984 MB/s) - ‘/tmp/chunklist_w1479874796.m3u8’ saved [229/229]

++ tail -1 /tmp/chunklist_w1479874796.m3u8
+ URL=media_w1479874796_2413.ts
+ wget https://5b17d0ba29814.streamlock.net:9443/live/avon.stream/media_w1479874796_2413.ts -O /tmp/aos.ts
--2025-08-05 19:04:11--  https://5b17d0ba29814.streamlock.net:9443/live/avon.stream/media_w1479874796_2413.ts
Resolving 5b17d0ba29814.streamlock.net (5b17d0ba29814.streamlock.net)... 67.213.220.48
Connecting to 5b17d0ba29814.streamlock.net (5b17d0ba29814.streamlock.net)|67.213.220.48|:9443... connected.
HTTP request sent, awaiting response... 200 OK
Length: 3814520 (3.6M) [video/MP2T]
Saving to: ‘/tmp/aos.ts’

     0K .......... .......... .......... .......... ..........  1%  729K 5s
    50K .......... .......... .......... .......... ..........  2%  804K 5s
   100K .......... .......... .......... .......... ..........  4% 26.7M 3s
   150K .......... .......... .......... .......... ..........  5%  752K 4s
   200K .......... .......... .......... .......... ..........  6% 41.8M 3s
   250K .......... .......... .......... .......... ..........  8%  731K 3s
   300K .......... .......... .......... .......... ..........  9% 16.7M 3s
   350K .......... .......... .......... .......... .......... 10%  735K 3s
   400K .......... .......... .......... .......... .......... 12% 11.7M 3s
   450K .......... .......... .......... .......... .......... 13%  782K 3s
   500K .......... .......... .......... .......... .......... 14% 9.86M 2s
   550K .......... .......... .......... .......... .......... 16%  780K 2s
   600K .......... .......... .......... .......... .......... 17% 18.9M 2s
   650K .......... .......... .......... .......... .......... 18%  716K 2s
   700K .......... .......... .......... .......... .......... 20% 38.1M 2s
   750K .......... .......... .......... .......... .......... 21% 20.1M 2s
   800K .......... .......... .......... .......... .......... 22%  718K 2s
   850K .......... .......... .......... .......... .......... 24% 32.7M 2s
   900K .......... .......... .......... .......... .......... 25% 21.8M 2s
   950K .......... .......... .......... .......... .......... 26%  786K 2s
  1000K .......... .......... .......... .......... .......... 28% 30.0M 2s
  1050K .......... .......... .......... .......... .......... 29%  720K 2s
  1100K .......... .......... .......... .......... .......... 30% 27.2M 2s
  1150K .......... .......... .......... .......... .......... 32% 26.4M 2s
  1200K .......... .......... .......... .......... .......... 33%  684K 2s
  1250K .......... .......... .......... .......... .......... 34% 40.0M 2s
  1300K .......... .......... .......... .......... .......... 36% 39.5M 1s
  1350K .......... .......... .......... .......... .......... 37% 31.4M 1s
  1400K .......... .......... .......... .......... .......... 38%  709K 1s
  1450K .......... .......... .......... .......... .......... 40% 14.4M 1s
  1500K .......... .......... .......... .......... .......... 41% 19.6M 1s
  1550K .......... .......... .......... .......... .......... 42%  729K 1s
  1600K .......... .......... .......... .......... .......... 44% 25.6M 1s
  1650K .......... .......... .......... .......... .......... 45% 32.3M 1s
  1700K .......... .......... .......... .......... .......... 46%  712K 1s
  1750K .......... .......... .......... .......... .......... 48% 26.3M 1s
  1800K .......... .......... .......... .......... .......... 49% 42.9M 1s
  1850K .......... .......... .......... .......... .......... 51%  750K 1s
  1900K .......... .......... .......... .......... .......... 52% 20.6M 1s
  1950K .......... .......... .......... .......... .......... 53% 23.5M 1s
  2000K .......... .......... .......... .......... .......... 55% 15.3M 1s
  2050K .......... .......... .......... .......... .......... 56%  744K 1s
  2100K .......... .......... .......... .......... .......... 57% 30.7M 1s
  2150K .......... .......... .......... .......... .......... 59% 29.1M 1s
  2200K .......... .......... .......... .......... .......... 60%  636K 1s
  2250K .......... .......... .......... .......... .......... 61% 56.6M 1s
  2300K .......... .......... .......... .......... .......... 63% 50.8M 1s
  2350K .......... .......... .......... .......... .......... 64%  753K 1s
  2400K .......... .......... .......... .......... .......... 65% 6.00M 1s
  2450K .......... .......... .......... .......... .......... 67% 66.1M 1s
  2500K .......... .......... .......... .......... .......... 68% 69.9M 1s
  2550K .......... .......... .......... .......... .......... 69%  759K 1s
  2600K .......... .......... .......... .......... .......... 71% 28.0M 1s
  2650K .......... .......... .......... .......... .......... 72%  689K 1s
  2700K .......... .......... .......... .......... .......... 73% 7.50M 1s
  2750K .......... .......... .......... .......... .......... 75%  721K 1s
  2800K .......... .......... .......... .......... .......... 76% 13.4M 0s
  2850K .......... .......... .......... .......... .......... 77%  789K 0s
  2900K .......... .......... .......... .......... .......... 79% 11.3M 0s
  2950K .......... .......... .......... .......... .......... 80%  718K 0s
  3000K .......... .......... .......... .......... .......... 81% 27.3M 0s
  3050K .......... .......... .......... .......... .......... 83% 40.8M 0s
  3100K .......... .......... .......... .......... .......... 84%  650K 0s
  3150K .......... .......... .......... .......... .......... 85% 27.5M 0s
  3200K .......... .......... .......... .......... .......... 87% 40.3M 0s
  3250K .......... .......... .......... .......... .......... 88% 43.0M 0s
  3300K .......... .......... .......... .......... .......... 89% 10.3M 0s
  3350K .......... .......... .......... .......... .......... 91%  724K 0s
  3400K .......... .......... .......... .......... .......... 92% 44.4M 0s
  3450K .......... .......... .......... .......... .......... 93%  761K 0s
  3500K .......... .......... .......... .......... .......... 95% 22.8M 0s
  3550K .......... .......... .......... .......... .......... 96%  744K 0s
  3600K .......... .......... .......... .......... .......... 97% 37.2M 0s
  3650K .......... .......... .......... .......... .......... 99%  729K 0s
  3700K .......... .......... .....                           100% 33.2M=2.1s

2025-08-05 19:04:14 (1.74 MB/s) - ‘/tmp/aos.ts’ saved [3814520/3814520]

+ ffmpeg -i /tmp/aos.ts -frames:v 1 /tmp/wa/aos.png
ffmpeg version 5.1.6-0+deb12u1+rpt3 Copyright (c) 2000-2024 the FFmpeg developers
  built with gcc 12 (Debian 12.2.0-14)
  configuration: --prefix=/usr --extra-version=0+deb12u1+rpt3 --toolchain=hardened --incdir=/usr/include/aarch64-linux-gnu --enable-gpl --disable-stripping --disable-mmal --enable-gnutls --enable-ladspa --enable-libaom --enable-libass --enable-libbluray --enable-libbs2b --enable-libcaca --enable-libcdio --enable-libcodec2 --enable-libdav1d --enable-libflite --enable-libfontconfig --enable-libfreetype --enable-libfribidi --enable-libglslang --enable-libgme --enable-libgsm --enable-libjack --enable-libmp3lame --enable-libmysofa --enable-libopenjpeg --enable-libopenmpt --enable-libopus --enable-libpulse --enable-librabbitmq --enable-librist --enable-librubberband --enable-libshine --enable-libsnappy --enable-libsoxr --enable-libspeex --enable-libsrt --enable-libssh --enable-libsvtav1 --enable-libtheora --enable-libtwolame --enable-libvidstab --enable-libvorbis --enable-libvpx --enable-libwebp --enable-libx265 --enable-libxml2 --enable-libxvid --enable-libzimg --enable-libzmq --enable-libzvbi --enable-lv2 --enable-omx --enable-openal --enable-opencl --enable-opengl --enable-sand --enable-sdl2 --disable-sndio --enable-libjxl --enable-neon --enable-v4l2-request --enable-libudev --enable-epoxy --libdir=/usr/lib/aarch64-linux-gnu --arch=arm64 --enable-pocketsphinx --enable-librsvg --enable-libdc1394 --enable-libdrm --enable-vout-drm --enable-libiec61883 --enable-chromaprint --enable-frei0r --enable-libx264 --enable-libplacebo --enable-librav1e --enable-shared
  libavutil      57. 28.100 / 57. 28.100
  libavcodec     59. 37.100 / 59. 37.100
  libavformat    59. 27.100 / 59. 27.100
  libavdevice    59.  7.100 / 59.  7.100
  libavfilter     8. 44.100 /  8. 44.100
  libswscale      6.  7.100 /  6.  7.100
  libswresample   4.  7.100 /  4.  7.100
  libpostproc    56.  6.100 / 56.  6.100
[mpegts @ 0x55561a286480] start time for stream 0 is not set in estimate_timings_from_pts
Input #0, mpegts, from '/tmp/aos.ts':
  Duration: 00:00:10.00, start: 84065.536533, bitrate: 3051 kb/s
  Program 1 
  Stream #0:0[0x102]: Data: timed_id3 (ID3  / 0x20334449)
  Stream #0:1[0x100]: Video: h264 (High) ([27][0][0][0] / 0x001B), yuvj420p(pc, bt709, progressive), 1920x1080, 30 fps, 30 tbr, 90k tbn
Stream mapping:
  Stream #0:1 -> #0:0 (h264 (native) -> png (native))
Press [q] to stop, [?] for help
[swscaler @ 0x55561ab07cd0] [swscaler @ 0x55561ab159d0] deprecated pixel format used, make sure you did set range correctly
[swscaler @ 0x55561ab07cd0] [swscaler @ 0x55561ab159d0] No accelerated colorspace conversion found from yuv420p to rgb24.
[swscaler @ 0x55561ab07cd0] [swscaler @ 0x55561ab41650] deprecated pixel format used, make sure you did set range correctly
[swscaler @ 0x55561ab07cd0] [swscaler @ 0x55561ab41650] No accelerated colorspace conversion found from yuv420p to rgb24.
[swscaler @ 0x55561ab07cd0] [swscaler @ 0x55561ab68a30] deprecated pixel format used, make sure you did set range correctly
[swscaler @ 0x55561ab07cd0] [swscaler @ 0x55561ab68a30] No accelerated colorspace conversion found from yuv420p to rgb24.
[swscaler @ 0x55561ab07cd0] [swscaler @ 0x55561ab8fe10] deprecated pixel format used, make sure you did set range correctly
[swscaler @ 0x55561ab07cd0] [swscaler @ 0x55561ab8fe10] No accelerated colorspace conversion found from yuv420p to rgb24.
[swscaler @ 0x55561ab07cd0] [swscaler @ 0x55561abb71f0] deprecated pixel format used, make sure you did set range correctly
[swscaler @ 0x55561ab07cd0] [swscaler @ 0x55561abb71f0] No accelerated colorspace conversion found from yuv420p to rgb24.
[swscaler @ 0x55561ab07cd0] [swscaler @ 0x55561ab253e0] deprecated pixel format used, make sure you did set range correctly
[swscaler @ 0x55561ab07cd0] [swscaler @ 0x55561ab253e0] No accelerated colorspace conversion found from yuv420p to rgb24.
[swscaler @ 0x55561ab07cd0] [swscaler @ 0x55561ab3d950] deprecated pixel format used, make sure you did set range correctly
[swscaler @ 0x55561ab07cd0] [swscaler @ 0x55561ab3d950] No accelerated colorspace conversion found from yuv420p to rgb24.
[swscaler @ 0x55561ab07cd0] [swscaler @ 0x55561ab6bf10] deprecated pixel format used, make sure you did set range correctly
[swscaler @ 0x55561ab07cd0] [swscaler @ 0x55561ab6bf10] No accelerated colorspace conversion found from yuv420p to rgb24.
[swscaler @ 0x55561ab07cd0] [swscaler @ 0x55561ab932f0] deprecated pixel format used, make sure you did set range correctly
[swscaler @ 0x55561ab07cd0] [swscaler @ 0x55561ab932f0] No accelerated colorspace conversion found from yuv420p to rgb24.
[swscaler @ 0x55561ab07cd0] [swscaler @ 0x55561abaf6b0] deprecated pixel format used, make sure you did set range correctly
[swscaler @ 0x55561ab07cd0] [swscaler @ 0x55561abaf6b0] No accelerated colorspace conversion found from yuv420p to rgb24.
[swscaler @ 0x55561ab07cd0] [swscaler @ 0x55561ab253e0] deprecated pixel format used, make sure you did set range correctly
[swscaler @ 0x55561ab07cd0] [swscaler @ 0x55561ab253e0] No accelerated colorspace conversion found from yuv420p to rgb24.
[swscaler @ 0x55561ab07cd0] [swscaler @ 0x55561ab3d950] deprecated pixel format used, make sure you did set range correctly
[swscaler @ 0x55561ab07cd0] [swscaler @ 0x55561ab3d950] No accelerated colorspace conversion found from yuv420p to rgb24.
[swscaler @ 0x55561ab07cd0] [swscaler @ 0x55561ab6bf10] deprecated pixel format used, make sure you did set range correctly
[swscaler @ 0x55561ab07cd0] [swscaler @ 0x55561ab6bf10] No accelerated colorspace conversion found from yuv420p to rgb24.
[swscaler @ 0x55561ab07cd0] [swscaler @ 0x55561ab932f0] deprecated pixel format used, make sure you did set range correctly
[swscaler @ 0x55561ab07cd0] [swscaler @ 0x55561ab932f0] No accelerated colorspace conversion found from yuv420p to rgb24.
[swscaler @ 0x55561ab07cd0] [swscaler @ 0x55561abaf6b0] deprecated pixel format used, make sure you did set range correctly
[swscaler @ 0x55561ab07cd0] [swscaler @ 0x55561abaf6b0] No accelerated colorspace conversion found from yuv420p to rgb24.
[swscaler @ 0x55561ab07cd0] [swscaler @ 0x55561ab253e0] deprecated pixel format used, make sure you did set range correctly
[swscaler @ 0x55561ab07cd0] [swscaler @ 0x55561ab253e0] No accelerated colorspace conversion found from yuv420p to rgb24.
[swscaler @ 0x55561ab07cd0] [swscaler @ 0x55561ab3d950] deprecated pixel format used, make sure you did set range correctly
[swscaler @ 0x55561ab07cd0] [swscaler @ 0x55561ab3d950] No accelerated colorspace conversion found from yuv420p to rgb24.
[swscaler @ 0x55561ab07cd0] [swscaler @ 0x55561ab6bf10] deprecated pixel format used, make sure you did set range correctly
[swscaler @ 0x55561ab07cd0] [swscaler @ 0x55561ab6bf10] No accelerated colorspace conversion found from yuv420p to rgb24.
[swscaler @ 0x55561ab07cd0] [swscaler @ 0x55561ab932f0] deprecated pixel format used, make sure you did set range correctly
[swscaler @ 0x55561ab07cd0] [swscaler @ 0x55561ab932f0] No accelerated colorspace conversion found from yuv420p to rgb24.
[swscaler @ 0x55561ab07cd0] [swscaler @ 0x55561abaf6b0] deprecated pixel format used, make sure you did set range correctly
[swscaler @ 0x55561ab07cd0] [swscaler @ 0x55561abaf6b0] No accelerated colorspace conversion found from yuv420p to rgb24.
Output #0, image2, to '/tmp/wa/aos.png':
  Metadata:
    encoder         : Lavf59.27.100
  Stream #0:0: Video: png, rgb24(pc, gbr/bt709/bt709, progressive), 1920x1080, q=2-31, 200 kb/s, 30 fps, 30 tbn
    Metadata:
      encoder         : Lavc59.37.100 png
frame=    1 fps=0.0 q=0.0 size=N/A time=00:00:00.00 bitrate=N/A speed=   0x    [image2 @ 0x55561a2f6df0] The specified filename '/tmp/wa/aos.png' does not contain an image sequence pattern or a pattern is invalid.
[image2 @ 0x55561a2f6df0] Use a pattern such as %03d for an image sequence or use the -update option (with -frames:v 1 if needed) to write a single image.
frame=    1 fps=0.0 q=-0.0 Lsize=N/A time=00:00:00.03 bitrate=N/A speed=0.116x    
video:905kB audio:0kB subtitle:0kB other streams:0kB global headers:0kB muxing overhead: unknown
+ convert /tmp/wa/aos.png -gravity Northeast -fill black -pointsize 32 -annotate +20+20 '\n\n2025-08-05 ~ 19:04' /tmp/wa/aos1.png
+ '[' 0 -ne 0 ']'
+ wget https://5b17d0ba29814.streamlock.net:9443/live/rodanthepi.stream/chunklist_w167089497.m3u8 -O /tmp/chunklist_w167089497.m3u8
--2025-08-05 19:04:16--  https://5b17d0ba29814.streamlock.net:9443/live/rodanthepi.stream/chunklist_w167089497.m3u8
Resolving 5b17d0ba29814.streamlock.net (5b17d0ba29814.streamlock.net)... 67.213.220.48
Connecting to 5b17d0ba29814.streamlock.net (5b17d0ba29814.streamlock.net)|67.213.220.48|:9443... connected.
HTTP request sent, awaiting response... 404 Not Found
2025-08-05 19:04:17 ERROR 404: Not Found.

++ tail -1 /tmp/chunklist_w167089497.m3u8
+ URL=
+ wget https://5b17d0ba29814.streamlock.net:9443/live/rodanthepi.stream/ -O /tmp/wos.ts
--2025-08-05 19:04:17--  https://5b17d0ba29814.streamlock.net:9443/live/rodanthepi.stream/
Resolving 5b17d0ba29814.streamlock.net (5b17d0ba29814.streamlock.net)... 67.213.220.48
Connecting to 5b17d0ba29814.streamlock.net (5b17d0ba29814.streamlock.net)|67.213.220.48|:9443... connected.
HTTP request sent, awaiting response... 404 Not Found
2025-08-05 19:04:17 ERROR 404: Not Found.

+ ffmpeg -i /tmp/wos.ts -frames:v 1 /tmp/wa/wos.png
ffmpeg version 5.1.6-0+deb12u1+rpt3 Copyright (c) 2000-2024 the FFmpeg developers
  built with gcc 12 (Debian 12.2.0-14)
  configuration: --prefix=/usr --extra-version=0+deb12u1+rpt3 --toolchain=hardened --incdir=/usr/include/aarch64-linux-gnu --enable-gpl --disable-stripping --disable-mmal --enable-gnutls --enable-ladspa --enable-libaom --enable-libass --enable-libbluray --enable-libbs2b --enable-libcaca --enable-libcdio --enable-libcodec2 --enable-libdav1d --enable-libflite --enable-libfontconfig --enable-libfreetype --enable-libfribidi --enable-libglslang --enable-libgme --enable-libgsm --enable-libjack --enable-libmp3lame --enable-libmysofa --enable-libopenjpeg --enable-libopenmpt --enable-libopus --enable-libpulse --enable-librabbitmq --enable-librist --enable-librubberband --enable-libshine --enable-libsnappy --enable-libsoxr --enable-libspeex --enable-libsrt --enable-libssh --enable-libsvtav1 --enable-libtheora --enable-libtwolame --enable-libvidstab --enable-libvorbis --enable-libvpx --enable-libwebp --enable-libx265 --enable-libxml2 --enable-libxvid --enable-libzimg --enable-libzmq --enable-libzvbi --enable-lv2 --enable-omx --enable-openal --enable-opencl --enable-opengl --enable-sand --enable-sdl2 --disable-sndio --enable-libjxl --enable-neon --enable-v4l2-request --enable-libudev --enable-epoxy --libdir=/usr/lib/aarch64-linux-gnu --arch=arm64 --enable-pocketsphinx --enable-librsvg --enable-libdc1394 --enable-libdrm --enable-vout-drm --enable-libiec61883 --enable-chromaprint --enable-frei0r --enable-libx264 --enable-libplacebo --enable-librav1e --enable-shared
  libavutil      57. 28.100 / 57. 28.100
  libavcodec     59. 37.100 / 59. 37.100
  libavformat    59. 27.100 / 59. 27.100
  libavdevice    59.  7.100 / 59.  7.100
  libavfilter     8. 44.100 /  8. 44.100
  libswscale      6.  7.100 /  6.  7.100
  libswresample   4.  7.100 /  4.  7.100
  libpostproc    56.  6.100 / 56.  6.100
/tmp/wos.ts: Invalid data found when processing input
+ convert /tmp/wa/wos.png -gravity Northeast -fill black -pointsize 32 -annotate +20+20 '\n\n2025-08-05 ~ 19:04' /tmp/wa/wos1.png
convert-im6.q16: unable to open image `/tmp/wa/wos.png': No such file or directory @ error/blob.c/OpenBlob/2924.
convert-im6.q16: no images defined `/tmp/wa/wos1.png' @ error/convert.c/ConvertImageCommand/3229.
+ '[' 1 -ne 0 ']'
+ convert -size 800x400 -background black -fill white -gravity center -pointsize 28 'label:as of 2025-08-05 ~ 19:04\nWaves cam is down.\n:(' /tmp/wa/wos1.png
+ wget https://5a5f765a4fcc2.streamlock.net:1936/live/hatteras.stream/chunklist_w1173875531.m3u8 -O /tmp/chunklist_w1173875531.m3u8
--2025-08-05 19:04:17--  https://5a5f765a4fcc2.streamlock.net:1936/live/hatteras.stream/chunklist_w1173875531.m3u8
Resolving 5a5f765a4fcc2.streamlock.net (5a5f765a4fcc2.streamlock.net)... 67.213.221.43
Connecting to 5a5f765a4fcc2.streamlock.net (5a5f765a4fcc2.streamlock.net)|67.213.221.43|:1936... connected.
HTTP request sent, awaiting response... 200 OK
Length: 229 [application/vnd.apple.mpegurl]
Saving to: ‘/tmp/chunklist_w1173875531.m3u8’

     0K                                                       100%  738M=0s

2025-08-05 19:04:18 (738 MB/s) - ‘/tmp/chunklist_w1173875531.m3u8’ saved [229/229]

++ tail -1 /tmp/chunklist_w1173875531.m3u8
+ URL=media_w1173875531_1162.ts
+ wget https://5a5f765a4fcc2.streamlock.net:1936/live/hatteras.stream/media_w1173875531_1162.ts -O /tmp/fos.ts
--2025-08-05 19:04:18--  https://5a5f765a4fcc2.streamlock.net:1936/live/hatteras.stream/media_w1173875531_1162.ts
Resolving 5a5f765a4fcc2.streamlock.net (5a5f765a4fcc2.streamlock.net)... 67.213.221.43
Connecting to 5a5f765a4fcc2.streamlock.net (5a5f765a4fcc2.streamlock.net)|67.213.221.43|:1936... connected.
HTTP request sent, awaiting response... 200 OK
Length: 3151632 (3.0M) [video/MP2T]
Saving to: ‘/tmp/fos.ts’

     0K .......... .......... .......... .......... ..........  1%  667K 5s
    50K .......... .......... .......... .......... ..........  3%  740K 4s
   100K .......... .......... .......... .......... ..........  4% 37.4M 3s
   150K .......... .......... .......... .......... ..........  6%  730K 3s
   200K .......... .......... .......... .......... ..........  8% 39.6M 2s
   250K .......... .......... .......... .......... ..........  9%  711K 3s
   300K .......... .......... .......... .......... .......... 11% 39.5M 2s
   350K .......... .......... .......... .......... .......... 12%  712K 2s
   400K .......... .......... .......... .......... .......... 14% 20.4M 2s
   450K .......... .......... .......... .......... .......... 16% 29.9M 2s
   500K .......... .......... .......... .......... .......... 17%  700K 2s
   550K .......... .......... .......... .......... .......... 19% 24.9M 2s
   600K .......... .......... .......... .......... .......... 21% 37.1M 2s
   650K .......... .......... .......... .......... .......... 22%  675K 2s
   700K .......... .......... .......... .......... .......... 24% 14.9M 2s
   750K .......... .......... .......... .......... .......... 25% 17.0M 1s
   800K .......... .......... .......... .......... .......... 27%  707K 2s
   850K .......... .......... .......... .......... .......... 29% 23.1M 1s
   900K .......... .......... .......... .......... .......... 30%  686K 1s
   950K .......... .......... .......... .......... .......... 32% 23.7M 1s
  1000K .......... .......... .......... .......... .......... 34% 32.8M 1s
  1050K .......... .......... .......... .......... .......... 35%  758K 1s
  1100K .......... .......... .......... .......... .......... 37% 23.2M 1s
  1150K .......... .......... .......... .......... .......... 38% 59.1M 1s
  1200K .......... .......... .......... .......... .......... 40%  712K 1s
  1250K .......... .......... .......... .......... .......... 42% 29.9M 1s
  1300K .......... .......... .......... .......... .......... 43% 29.4M 1s
  1350K .......... .......... .......... .......... .......... 45% 28.9M 1s
  1400K .......... .......... .......... .......... .......... 47%  713K 1s
  1450K .......... .......... .......... .......... .......... 48% 41.6M 1s
  1500K .......... .......... .......... .......... .......... 50% 25.3M 1s
  1550K .......... .......... .......... .......... .......... 51%  637K 1s
  1600K .......... .......... .......... .......... .......... 53% 28.2M 1s
  1650K .......... .......... .......... .......... .......... 55% 15.2M 1s
  1700K .......... .......... .......... .......... .......... 56%  718K 1s
  1750K .......... .......... .......... .......... .......... 58% 38.1M 1s
  1800K .......... .......... .......... .......... .......... 60% 21.4M 1s
  1850K .......... .......... .......... .......... .......... 61% 18.3M 1s
  1900K .......... .......... .......... .......... .......... 63%  694K 1s
  1950K .......... .......... .......... .......... .......... 64% 28.1M 1s
  2000K .......... .......... .......... .......... .......... 66% 14.2M 1s
  2050K .......... .......... .......... .......... .......... 68%  722K 1s
  2100K .......... .......... .......... .......... .......... 69% 40.8M 1s
  2150K .......... .......... .......... .......... .......... 71% 28.8M 0s
  2200K .......... .......... .......... .......... .......... 73%  743K 0s
  2250K .......... .......... .......... .......... .......... 74% 44.5M 0s
  2300K .......... .......... .......... .......... .......... 76%  723K 0s
  2350K .......... .......... .......... .......... .......... 77% 11.6M 0s
  2400K .......... .......... .......... .......... .......... 79%  714K 0s
  2450K .......... .......... .......... .......... .......... 81%  164M 0s
  2500K .......... .......... .......... .......... .......... 82%  162M 0s
  2550K .......... .......... .......... .......... .......... 84% 19.7M 0s
  2600K .......... .......... .......... .......... .......... 86%  711K 0s
  2650K .......... .......... .......... .......... .......... 87% 32.1M 0s
  2700K .......... .......... .......... .......... .......... 89%  772K 0s
  2750K .......... .......... .......... .......... .......... 90% 17.1M 0s
  2800K .......... .......... .......... .......... .......... 92%  734K 0s
  2850K .......... .......... .......... .......... .......... 94% 21.8M 0s
  2900K .......... .......... .......... .......... .......... 95%  725K 0s
  2950K .......... .......... .......... .......... .......... 97% 39.2M 0s
  3000K .......... .......... .......... .......... .......... 99%  725K 0s
  3050K .......... .......... .......                         100% 12.5M=1.8s

2025-08-05 19:04:20 (1.71 MB/s) - ‘/tmp/fos.ts’ saved [3151632/3151632]

+ ffmpeg -i /tmp/fos.ts -frames:v 1 /tmp/wa/fos.png
ffmpeg version 5.1.6-0+deb12u1+rpt3 Copyright (c) 2000-2024 the FFmpeg developers
  built with gcc 12 (Debian 12.2.0-14)
  configuration: --prefix=/usr --extra-version=0+deb12u1+rpt3 --toolchain=hardened --incdir=/usr/include/aarch64-linux-gnu --enable-gpl --disable-stripping --disable-mmal --enable-gnutls --enable-ladspa --enable-libaom --enable-libass --enable-libbluray --enable-libbs2b --enable-libcaca --enable-libcdio --enable-libcodec2 --enable-libdav1d --enable-libflite --enable-libfontconfig --enable-libfreetype --enable-libfribidi --enable-libglslang --enable-libgme --enable-libgsm --enable-libjack --enable-libmp3lame --enable-libmysofa --enable-libopenjpeg --enable-libopenmpt --enable-libopus --enable-libpulse --enable-librabbitmq --enable-librist --enable-librubberband --enable-libshine --enable-libsnappy --enable-libsoxr --enable-libspeex --enable-libsrt --enable-libssh --enable-libsvtav1 --enable-libtheora --enable-libtwolame --enable-libvidstab --enable-libvorbis --enable-libvpx --enable-libwebp --enable-libx265 --enable-libxml2 --enable-libxvid --enable-libzimg --enable-libzmq --enable-libzvbi --enable-lv2 --enable-omx --enable-openal --enable-opencl --enable-opengl --enable-sand --enable-sdl2 --disable-sndio --enable-libjxl --enable-neon --enable-v4l2-request --enable-libudev --enable-epoxy --libdir=/usr/lib/aarch64-linux-gnu --arch=arm64 --enable-pocketsphinx --enable-librsvg --enable-libdc1394 --enable-libdrm --enable-vout-drm --enable-libiec61883 --enable-chromaprint --enable-frei0r --enable-libx264 --enable-libplacebo --enable-librav1e --enable-shared
  libavutil      57. 28.100 / 57. 28.100
  libavcodec     59. 37.100 / 59. 37.100
  libavformat    59. 27.100 / 59. 27.100
  libavdevice    59.  7.100 / 59.  7.100
  libavfilter     8. 44.100 /  8. 44.100
  libswscale      6.  7.100 /  6.  7.100
  libswresample   4.  7.100 /  4.  7.100
  libpostproc    56.  6.100 / 56.  6.100
[mpegts @ 0x5555d572e480] start time for stream 0 is not set in estimate_timings_from_pts
Input #0, mpegts, from '/tmp/fos.ts':
  Duration: 00:00:10.00, start: 84067.927533, bitrate: 2521 kb/s
  Program 1 
  Stream #0:0[0x102]: Data: timed_id3 (ID3  / 0x20334449)
  Stream #0:1[0x100]: Video: h264 (High) ([27][0][0][0] / 0x001B), yuvj420p(pc, bt709, progressive), 1920x1080, 30 fps, 30 tbr, 90k tbn
Stream mapping:
  Stream #0:1 -> #0:0 (h264 (native) -> png (native))
Press [q] to stop, [?] for help
[swscaler @ 0x5555d5fdc170] [swscaler @ 0x5555d5fe9c80] deprecated pixel format used, make sure you did set range correctly
[swscaler @ 0x5555d5fdc170] [swscaler @ 0x5555d5fe9c80] No accelerated colorspace conversion found from yuv420p to rgb24.
[swscaler @ 0x5555d5fdc170] [swscaler @ 0x5555d6015900] deprecated pixel format used, make sure you did set range correctly
[swscaler @ 0x5555d5fdc170] [swscaler @ 0x5555d6015900] No accelerated colorspace conversion found from yuv420p to rgb24.
[swscaler @ 0x5555d5fdc170] [swscaler @ 0x5555d603cce0] deprecated pixel format used, make sure you did set range correctly
[swscaler @ 0x5555d5fdc170] [swscaler @ 0x5555d603cce0] No accelerated colorspace conversion found from yuv420p to rgb24.
[swscaler @ 0x5555d5fdc170] [swscaler @ 0x5555d60640c0] deprecated pixel format used, make sure you did set range correctly
[swscaler @ 0x5555d5fdc170] [swscaler @ 0x5555d60640c0] No accelerated colorspace conversion found from yuv420p to rgb24.
[swscaler @ 0x5555d5fdc170] [swscaler @ 0x5555d608b4a0] deprecated pixel format used, make sure you did set range correctly
[swscaler @ 0x5555d5fdc170] [swscaler @ 0x5555d608b4a0] No accelerated colorspace conversion found from yuv420p to rgb24.
[swscaler @ 0x5555d5fdc170] [swscaler @ 0x5555d5ff9690] deprecated pixel format used, make sure you did set range correctly
[swscaler @ 0x5555d5fdc170] [swscaler @ 0x5555d5ff9690] No accelerated colorspace conversion found from yuv420p to rgb24.
[swscaler @ 0x5555d5fdc170] [swscaler @ 0x5555d6011c00] deprecated pixel format used, make sure you did set range correctly
[swscaler @ 0x5555d5fdc170] [swscaler @ 0x5555d6011c00] No accelerated colorspace conversion found from yuv420p to rgb24.
[swscaler @ 0x5555d5fdc170] [swscaler @ 0x5555d60401c0] deprecated pixel format used, make sure you did set range correctly
[swscaler @ 0x5555d5fdc170] [swscaler @ 0x5555d60401c0] No accelerated colorspace conversion found from yuv420p to rgb24.
[swscaler @ 0x5555d5fdc170] [swscaler @ 0x5555d60675a0] deprecated pixel format used, make sure you did set range correctly
[swscaler @ 0x5555d5fdc170] [swscaler @ 0x5555d60675a0] No accelerated colorspace conversion found from yuv420p to rgb24.
[swscaler @ 0x5555d5fdc170] [swscaler @ 0x5555d6083960] deprecated pixel format used, make sure you did set range correctly
[swscaler @ 0x5555d5fdc170] [swscaler @ 0x5555d6083960] No accelerated colorspace conversion found from yuv420p to rgb24.
[swscaler @ 0x5555d5fdc170] [swscaler @ 0x5555d5ff9690] deprecated pixel format used, make sure you did set range correctly
[swscaler @ 0x5555d5fdc170] [swscaler @ 0x5555d5ff9690] No accelerated colorspace conversion found from yuv420p to rgb24.
[swscaler @ 0x5555d5fdc170] [swscaler @ 0x5555d6011c00] deprecated pixel format used, make sure you did set range correctly
[swscaler @ 0x5555d5fdc170] [swscaler @ 0x5555d6011c00] No accelerated colorspace conversion found from yuv420p to rgb24.
[swscaler @ 0x5555d5fdc170] [swscaler @ 0x5555d60401c0] deprecated pixel format used, make sure you did set range correctly
[swscaler @ 0x5555d5fdc170] [swscaler @ 0x5555d60401c0] No accelerated colorspace conversion found from yuv420p to rgb24.
[swscaler @ 0x5555d5fdc170] [swscaler @ 0x5555d60675a0] deprecated pixel format used, make sure you did set range correctly
[swscaler @ 0x5555d5fdc170] [swscaler @ 0x5555d60675a0] No accelerated colorspace conversion found from yuv420p to rgb24.
[swscaler @ 0x5555d5fdc170] [swscaler @ 0x5555d6083960] deprecated pixel format used, make sure you did set range correctly
[swscaler @ 0x5555d5fdc170] [swscaler @ 0x5555d6083960] No accelerated colorspace conversion found from yuv420p to rgb24.
[swscaler @ 0x5555d5fdc170] [swscaler @ 0x5555d5ff9690] deprecated pixel format used, make sure you did set range correctly
[swscaler @ 0x5555d5fdc170] [swscaler @ 0x5555d5ff9690] No accelerated colorspace conversion found from yuv420p to rgb24.
[swscaler @ 0x5555d5fdc170] [swscaler @ 0x5555d6011c00] deprecated pixel format used, make sure you did set range correctly
[swscaler @ 0x5555d5fdc170] [swscaler @ 0x5555d6011c00] No accelerated colorspace conversion found from yuv420p to rgb24.
[swscaler @ 0x5555d5fdc170] [swscaler @ 0x5555d60401c0] deprecated pixel format used, make sure you did set range correctly
[swscaler @ 0x5555d5fdc170] [swscaler @ 0x5555d60401c0] No accelerated colorspace conversion found from yuv420p to rgb24.
[swscaler @ 0x5555d5fdc170] [swscaler @ 0x5555d60675a0] deprecated pixel format used, make sure you did set range correctly
[swscaler @ 0x5555d5fdc170] [swscaler @ 0x5555d60675a0] No accelerated colorspace conversion found from yuv420p to rgb24.
[swscaler @ 0x5555d5fdc170] [swscaler @ 0x5555d6083960] deprecated pixel format used, make sure you did set range correctly
[swscaler @ 0x5555d5fdc170] [swscaler @ 0x5555d6083960] No accelerated colorspace conversion found from yuv420p to rgb24.
Output #0, image2, to '/tmp/wa/fos.png':
  Metadata:
    encoder         : Lavf59.27.100
  Stream #0:0: Video: png, rgb24(pc, gbr/bt709/bt709, progressive), 1920x1080, q=2-31, 200 kb/s, 30 fps, 30 tbn
    Metadata:
      encoder         : Lavc59.37.100 png
frame=    1 fps=0.0 q=0.0 size=N/A time=00:00:00.00 bitrate=N/A speed=   0x    [image2 @ 0x5555d576eea0] The specified filename '/tmp/wa/fos.png' does not contain an image sequence pattern or a pattern is invalid.
[image2 @ 0x5555d576eea0] Use a pattern such as %03d for an image sequence or use the -update option (with -frames:v 1 if needed) to write a single image.
frame=    1 fps=0.0 q=-0.0 Lsize=N/A time=00:00:00.03 bitrate=N/A speed=0.103x    
video:2288kB audio:0kB subtitle:0kB other streams:0kB global headers:0kB muxing overhead: unknown
+ convert /tmp/wa/fos.png -gravity Northeast -fill black -pointsize 32 -annotate +20+20 '\n\n2025-08-05 ~ 19:04' /tmp/wa/fos1.png
+ '[' 0 -ne 0 ']'
+ mv /tmp/wa/pos1.png pos.png
+ mv /tmp/wa/wos1.png wos.png
+ mv /tmp/wa/aos1.png aos.png
+ mv /tmp/wa/fos1.png fos.png
+ echo 'fetching radio mp3'
+ nlpid=6515
+ wget http://93.190.137.196:8427/ -O /tmp/wa/nlradio.mp3
+ sleep 300
--2025-08-05 19:04:25--  http://93.190.137.196:8427/
Connecting to 93.190.137.196:8427... connected.
HTTP request sent, awaiting response... 200 OK
Length: unspecified [audio/mpeg]
Saving to: ‘/tmp/wa/nlradio.mp3’

     0K .......... .......... .......... .......... ..........  127K
    50K .......... .......... .......... .......... ..........  289K
   100K .......... .......... .......... .......... .......... 2.06M
   150K .......... .......... .......... .......... .......... 8.15M
   200K .......... .......... .......... .......... ..........  286K
   250K .......... .......... .......... .......... .......... 35.1K
   300K .......... .......... .......... .......... .......... 24.1K
   350K .......... .......... .......... .......... .......... 23.1K
   400K .......... .......... .......... .......... .......... 23.6K
   450K .......... .......... .......... .......... .......... 23.0K
   500K .......... .......... .......... .......... .......... 23.6K
   550K .......... .......... .......... .......... .......... 23.4K
   600K .......... .......... .......... .......... .......... 23.7K
   650K .......... .......... .......... .......... .......... 22.8K
   700K .......... .......... .......... .......... .......... 23.6K
   750K .......... .......... .......... .......... .......... 24.2K
   800K .......... .......... .......... .......... .......... 23.2K
   850K .......... .......... .......... .......... .......... 23.8K
   900K .......... .......... .......... .......... .......... 22.8K
   950K .......... .......... .......... .......... .......... 23.7K
  1000K .......... .......... .......... .......... .......... 23.4K
  1050K .......... .......... .......... .......... .......... 23.2K
  1100K .......... .......... .......... .......... .......... 23.6K
  1150K .......... .......... .......... .......... .......... 23.4K
  1200K .......... .......... .......... .......... .......... 23.1K
  1250K .......... .......... .......... .......... .......... 23.8K
  1300K .......... .......... .......... .......... .......... 23.5K
  1350K .......... .......... .......... .......... .......... 23.4K
  1400K .......... .......... .......... .......... .......... 23.7K
  1450K .......... .......... .......... .......... .......... 22.9K
  1500K .......... .......... .......... .......... .......... 23.8K
  1550K .......... .......... .......... .......... .......... 23.5K
  1600K .......... .......... .......... .......... .......... 23.2K
  1650K .......... .......... .......... .......... .......... 23.7K
  1700K .......... .......... .......... .......... .......... 23.3K
  1750K .......... .......... .......... .......... .......... 23.2K
  1800K .......... .......... .......... .......... .......... 24.0K
  1850K .......... .......... .......... .......... .......... 23.2K
  1900K .......... .......... .......... .......... .......... 23.7K
  1950K .......... .......... .......... .......... .......... 23.7K
  2000K .......... .......... .......... .......... .......... 22.9K
  2050K .......... .......... .......... .......... .......... 23.5K
  2100K .......... .......... .......... .......... .......... 23.8K
  2150K .......... .......... .......... .......... .......... 23.3K
  2200K .......... .......... .......... .......... .......... 23.0K
  2250K .......... .......... .......... .......... .......... 23.7K
  2300K .......... .......... .......... .......... .......... 23.3K
  2350K .......... .......... .......... .......... .......... 23.7K
  2400K .......... .......... .......... .......... .......... 23.3K
  2450K .......... .......... .......... .......... .......... 23.7K
  2500K .......... .......... .......... .......... .......... 23.2K
  2550K .......... .......... .......... .......... .......... 11.3K
  2600K .......... .......... .......... .......... ..........  268M
  2650K .......... .......... .......... .......... .......... 25.6K
  2700K .......... .......... .......... .......... .......... 22.9K
  2750K .......... .......... .......... .......... .......... 13.1K
  2800K .......... .......... .......... .......... ..........  132K
  2850K .......... .......... .......... .......... .......... 23.2K
  2900K .......... .......... .......... .......... .......... 23.2K
  2950K .......... .......... .......... .......... .......... 23.5K
  3000K .......... .......... .......... .......... .......... 23.7K
  3050K .......... .......... .......... .......... .......... 23.4K
  3100K .......... .......... .......... .......... .......... 23.3K
  3150K .......... .......... .......... .......... .......... 23.2K
  3200K .......... .......... .......... .......... .......... 23.3K
  3250K .......... .......... .......... .......... .......... 24.1K
  3300K .......... .......... .......... .......... .......... 23.0K
  3350K .......... .......... .......... .......... .......... 23.7K
  3400K .......... .......... .......... .......... .......... 23.5K
  3450K .......... .......... .......... .......... .......... 23.4K
  3500K .......... .......... .......... .......... .......... 23.5K
  3550K .......... .......... .......... .......... .......... 23.6K
  3600K .......... .......... .......... .......... .......... 23.3K
  3650K .......... .......... .......... .......... .......... 23.6K
  3700K .......... .......... .......... .......... .......... 23.3K
  3750K .......... .......... .......... .......... .......... 23.5K
  3800K .......... .......... .......... .......... .......... 23.0K
  3850K .......... .......... .......... .......... .......... 23.4K
  3900K .......... .......... .......... .......... .......... 23.7K
  3950K .......... .......... .......... .......... .......... 23.0K
  4000K .......... .......... .......... .......... .......... 23.6K
  4050K .......... .......... .......... .......... .......... 23.5K
  4100K .......... .......... .......... .......... .......... 23.2K
  4150K .......... .......... .......... .......... .......... 23.9K
  4200K .......... .......... .......... .......... .......... 23.4K
  4250K .......... .......... .......... .......... .......... 22.9K
  4300K .......... .......... .......... .......... .......... 23.7K
  4350K .......... .......... .......... .......... .......... 23.9K
  4400K .......... .......... .......... .......... .......... 23.3K
  4450K .......... .......... .......... .......... .......... 23.4K
  4500K .......... .......... .......... .......... .......... 23.8K
  4550K .......... .......... .......... .......... .......... 22.8K
  4600K .......... .......... .......... .......... .......... 23.5K
  4650K .......... .......... .......... .......... .......... 23.4K
  4700K .......... .......... .......... .......... .......... 24.1K
  4750K .......... .......... .......... .......... .......... 22.9K
  4800K .......... .......... .......... .......... .......... 23.6K
  4850K .......... .......... .......... .......... .......... 23.3K
  4900K .......... .......... .......... .......... .......... 23.6K
  4950K .......... .......... .......... .......... .......... 23.6K
  5000K .......... .......... .......... .......... .......... 22.7K
  5050K .......... .......... .......... .......... .......... 23.5K
  5100K .......... .......... .......... .......... .......... 24.3K
  5150K .......... .......... .......... .......... .......... 23.1K
  5200K .......... .......... .......... .......... .......... 23.0K
  5250K .......... .......... .......... .......... .......... 23.9K
  5300K .......... .......... .......... .......... .......... 23.8K
  5350K .......... .......... .......... .......... .......... 22.6K
  5400K .......... .......... .......... .......... .......... 24.1K
  5450K .......... .......... .......... .......... .......... 23.2K
  5500K .......... .......... .......... .......... .......... 23.4K
  5550K .......... .......... .......... .......... .......... 23.5K
  5600K .......... .......... .......... .......... .......... 23.8K
  5650K .......... .......... .......... .......... .......... 23.4K
  5700K .......... .......... .......... .......... .......... 23.2K
  5750K .......... .......... .......... .......... .......... 23.0K
  5800K .......... .......... .......... .......... .......... 23.4K
  5850K .......... .......... .......... .......... .......... 23.7K
  5900K .......... .......... .......... .......... .......... 23.3K
  5950K .......... .......... .......... .......... .......... 23.4K
  6000K .......... .......... .......... .......... .......... 24.1K
  6050K .......... .......... .......... .......... .......... 23.1K
  6100K .......... .......... .......... .......... .......... 23.4K
  6150K .......... .......... .......... .......... .......... 23.1K
  6200K .......... .......... .......... .......... .......... 23.6K
  6250K .......... .......... .......... .......... .......... 23.8K
  6300K .......... .......... .......... .......... .......... 23.1K
  6350K .......... .......... .......... .......... .......... 23.9K
  6400K .......... .......... .......... .......... .......... 22.9K
  6450K .......... .......... .......... .......... .......... 24.0K
  6500K .......... .......... .......... .......... .......... 23.0K
  6550K .......... .......... .......... .......... .......... 23.8K
  6600K .......... .......... .......... .......... .......... 23.3K
  6650K .......... .......... .......... .......... .......... 23.2K
  6700K .......... .......... .......... .......... .......... 23.8K
  6750K .......... .......... .......... .......... .......... 23.7K
  6800K .......... .......... .......... .......... .......... 23.4K
  6850K .......... .......... .......... .......... .......... 23.4K
  6900K .......... .......... .......... .......... .......... 23.4K
  6950K .......... .......... .......... .......... .......... 23.5K
  7000K .......... .......... .......... .......... .......... 6.06K
  7050K .......... .......... .......... .......... ..........  244M
  7100K .......... .......... .......... .......... ..........  262M
  7150K .......... .......... .......... .......... ..........  174K
  7200K .......... .......... .......... .......... .......... 23.4K
  7250K .......... .......... .+ kill 6515
+ cp /tmp/wa/nlradio.mp3 .
cp: cannot stat '/tmp/wa/nlradio.mp3': No such file or directory
+ whereis git
+ git status
+ git add '*.png' '*.mp3' surf-temp.gif
fatal: pathspec '*.mp3' did not match any files
++ date '+%Y-%m-%d %H:%M:%S'
+ git commit -m 'checkin lwwa web resources: 2025-08-05 19:09:25'
On branch main
Your branch is up to date with 'origin/main'.

Changes not staged for commit:
  (use "git add/rm <file>..." to update what will be committed)
  (use "git restore <file>..." to discard changes in working directory)
	modified:   ../deploy.sh
	deleted:    7day.png
	deleted:    accuweather.png
	deleted:    aos.png
	deleted:    captain.png
	deleted:    cones.png
	deleted:    fos.png
	deleted:    ikite.png
	deleted:    noaa.png
	deleted:    pos.png
	deleted:    surfchex1.png
	deleted:    surfchex2.png
	deleted:    tides.png
	deleted:    wos.png

Untracked files:
  (use "git add <file>..." to include in what will be committed)
	../nohup.out

no changes added to commit (use "git add" and/or "git commit -a")
+ git status
+ git push --set-upstream origin main
Everything up-to-date
+ date
+ echo 'Finish with deploy.sh'
